# xmcd
#
# Track frame offsets:
#	150
#	26740
#	51697
#	76592
#	107930
#	138620
#	170813
#	184875
#	210222
#	230657
#	247382
#	269307
#	290440
#	320790
#
# Disc length: 4546
#
# Revision: 1
# Processed by: cddbd v1.5.1PL0 Copyright (c) Steve Scherf et al.
# Submitted via: CDex 1.50beta10
# Normalized: r0:DSETVAR1,TDELIM( - )
#
DISCID=de11c00e
DTITLE=Various Artist - Master Jazz Collection
DYEAR=2003
DGENRE=Jazz
TTITLE0=Tommy Flanagan - Between The Devil And The Deep Blue Sea
TTITLE1=Dave Brubeck Quartet - Take Five
TTITLE2=Art Pepper - You'd Be So Nice To Come Home To
TTITLE3=Bill Evans - Waltz For Debby
TTITLE4=Sonny Rollins - St. Thomas
TTITLE5=The Modern Jazz Quartet - Django
TTITLE6=Shelly Manne - I Could Have Danced All Night
TTITLE7=Chick Corea - Great Pumpkin Waltz
TTITLE8=Gerry Mulligan - Rain, Rain, Go Away
TTITLE9=Amani A. W. - Murray - Charlie Brown Theme
TTITLE10=Art Tatum and Ben Webster - Gone With The Wind
TTITLE11=Kenny Dorham - Lotus Blossom
TTITLE12=Bill Evans - T.T.T. (Twelve Tone Tune)
TTITLE13=Dave Brubeck Quartet - Everybody's Jumpin
EXTD=YEAR: 2003
EXTT0=
EXTT1=
EXTT2=
EXTT3=
EXTT4=
EXTT5=
EXTT6=
EXTT7=
EXTT8=
EXTT9=
EXTT10=
EXTT11=
EXTT12=
EXTT13=
PLAYORDER=
